<?xml version="1.0" encoding="UTF-8" standalone="no"?>
<!-- Created with Inkscape (http://www.inkscape.org/) -->

<svg
   xmlns:dc="http://purl.org/dc/elements/1.1/"
   xmlns:cc="http://creativecommons.org/ns#"
   xmlns:rdf="http://www.w3.org/1999/02/22-rdf-syntax-ns#"
   xmlns:svg="http://www.w3.org/2000/svg"
   xmlns="http://www.w3.org/2000/svg"
   xmlns:sodipodi="http://sodipodi.sourceforge.net/DTD/sodipodi-0.dtd"
   xmlns:inkscape="http://www.inkscape.org/namespaces/inkscape"
   width="66.14592mm"
   height="42.353764mm"
   viewBox="0 0 66.14592 42.353764"
   version="1.1"
   id="svg3797"
   sodipodi:docname="mute.svg"
   inkscape:dataloss="true">
  <defs
     id="defs3791" />
  <sodipodi:namedview
     id="base"
     pagecolor="#ffffff"
     bordercolor="#666666"
     borderopacity="1.0"
     inkscape:pageopacity="0.0"
     inkscape:pageshadow="2"
     inkscape:zoom="0.98994949"
     inkscape:cx="288.20054"
     inkscape:cy="76.813352"
     inkscape:document-units="mm"
     inkscape:current-layer="layer1"
     showgrid="false"
     inkscape:window-width="1440"
     inkscape:window-height="837"
     inkscape:window-x="-8"
     inkscape:window-y="-8"
     inkscape:window-maximized="1" />
  <metadata
     id="metadata3794">
    <rdf:RDF>
      <cc:Work
         rdf:about="">
        <dc:format>image/svg+xml</dc:format>
        <dc:type
           rdf:resource="http://purl.org/dc/dcmitype/StillImage" />
      </cc:Work>
    </rdf:RDF>
  </metadata>
  <g
     inkscape:label="Layer 1"
     inkscape:groupmode="layer"
     id="layer1"
     transform="translate(-131.03765,-83.121018)">
    <path
       style="fill:#000000;stroke-width:0.26458335"
       d="m 180.38244,120.09555 c -15.14236,-9.91821 -49.21186,-32.257113 -49.27434,-32.308508 -0.034,-0.02798 1.89673,-1.089278 4.29053,-2.358446 l 4.35238,-2.307578 3.97515,2.658584 3.97516,2.658584 5.29421,-2.649627 5.29421,-2.649628 v 6.082058 6.082054 l 2.18281,1.46226 2.18281,1.46226 0.0761,-2.38368 0.0761,-2.38368 h 4.3557 4.3557 v 5.30074 5.300737 l 2.05052,1.31385 2.05052,1.31385 0.0695,-9.260417 0.0695,-9.260427 h 4.22994 4.22995 l 0.006,12.104684 0.006,12.10469 2.11071,1.39052 2.11072,1.39052 V 99.150203 83.141453 h 4.36562 4.36563 v 21.166667 21.16666 l -4.29948,-0.003 -4.29948,-0.003 -8.20209,-5.37234 z m -30.29479,-2.82285 -7.80521,-3.94015 -5.62239,-0.0143 -5.6224,-0.0143 v -10.84792 c 0,-5.966347 0.0524,-10.847911 0.11637,-10.847911 0.064,0 6.16595,3.966574 13.55989,8.814611 l 13.44353,8.81462 0.0711,6.00205 c 0.0391,3.30113 -0.0204,5.99561 -0.13229,5.98775 -0.11187,-0.008 -3.71574,-1.78737 -8.00861,-3.95445 z"
       id="path3812"
       inkscape:connector-curvature="0" />
  </g>
</svg>
