<?xml version="1.0" encoding="UTF-8" standalone="no"?>
<svg
   xmlns:dc="http://purl.org/dc/elements/1.1/"
   xmlns:cc="http://creativecommons.org/ns#"
   xmlns:rdf="http://www.w3.org/1999/02/22-rdf-syntax-ns#"
   xmlns:svg="http://www.w3.org/2000/svg"
   xmlns="http://www.w3.org/2000/svg"
   id="svg3797"
   version="1.1"
   viewBox="0 0 66.145111 42.333328"
   height="42.333328mm"
   width="66.145111mm">
  <defs
     id="defs3791" />
  <metadata
     id="metadata3794">
    <rdf:RDF>
      <cc:Work
         rdf:about="">
        <dc:format>image/svg+xml</dc:format>
        <dc:type
           rdf:resource="http://purl.org/dc/dcmitype/StillImage" />
        <dc:title></dc:title>
      </cc:Work>
    </rdf:RDF>
  </metadata>
  <g
     transform="translate(-16.331818,-9.2939189)"
     id="layer1">
    <path
       id="path3810"
       d="m 59.326612,42.070629 c -8.00365,-5.25169 -20.93524,-13.73207 -28.73687,-18.84529 l -14.184786,-9.296753 1.484785,-0.814449 c 0.816632,-0.447947 2.74529,-1.486812 4.285907,-2.308589 l 2.801121,-1.4941401 4.07624,2.6679641 4.07624,2.667964 5.096783,-2.544417 c 2.80324,-1.399429 5.15554,-2.5444171 5.22733,-2.5444171 0.0718,0 0.13054,2.6768281 0.13054,5.9485061 v 5.948501 l 2.18281,1.46226 2.18282,1.46226 0.0761,-2.38368 0.0761,-2.38368 h 4.35569 4.3557 v 5.29701 5.29701 l 2.05052,1.33869 2.05052,1.33869 0.0696,-9.14924 0.0696,-9.149243 h 4.22991 4.2299 l 0.003,11.972393 0.003,11.9724 2.02001,1.32291 c 1.111,0.72761 2.1215,1.36261 2.24554,1.41111 0.12405,0.0485 0.22554,-7.125 0.22554,-15.94114 V 9.2939189 h 4.23333 4.23334 v 21.1666701 21.16666 l -4.29948,-0.004 -4.29948,-0.004 -14.55209,-9.54854 z m -23.944793,1.35454 -7.805209,-3.94015 -5.622396,-0.0143 -5.622396,-0.0143 v -10.84792 c 0,-5.96635 0.04918,-10.847914 0.109279,-10.847914 0.0601,0 6.162057,3.970314 13.559897,8.822934 l 13.450618,8.82292 0.0711,5.99374 c 0.0391,3.29656 -0.0204,5.9873 -0.13229,5.97944 -0.11187,-0.008 -3.71575,-1.78737 -8.008615,-3.95445 z"
       style="fill:#000000;stroke-width:0.26458335" />
  </g>
</svg>
