<svg xmlns="http://www.w3.org/2000/svg" style="display: none;">
  
  <symbol id="question-mark" viewBox="0 0 60 60">
    <path d="M18 23.6296H26V18H34V26.2963H26V39.6296H34V34.2963H42V10H18V23.6296Z"/>
    <path d="M34 42H26V50H34V42Z"/>
  </symbol>
  
  <symbol id="music-note" viewBox="0 0 25 25">
    <path d="M19.9813 0H9.98134H5V7.48134V14.9813H0V22.4627H5H9.98134V14.9813V7.48134H19.9813V17.4813H14.9813V24.9627H19.9813H24.9627V17.4813V7.48134V0H19.9813Z"/>
  </symbol>

  <symbol id="pause" viewBox="0 0 60 60">
    <g clip-path="url(#clip0)">
    <rect x="15" y="10" width="12.0588" height="40"/>
    <rect x="32.9412" y="10" width="12.0588" height="40"/>
    </g>
    <defs>
    <clipPath id="clip0">
    <rect width="30" height="40" transform="translate(15 10)"/>
    </clipPath>
    </defs>
  </symbol>

  <symbol id="volume" viewBox="0 0 36 22">
    <path d="M6.36667 4.71194H0V17.2552H6.36667L15.9333 21.9672V0L6.36667 4.71194Z"/>
    <path d="M22.6 5.5H18.1333V16.4836H22.6V5.5Z" />
    <path d="M29.2833 2.74182H24.8167V19.2254H29.2833V2.74182Z"/>
    <path d="M35.9667 0H31.5V21.9672H35.9667V0Z"/>
  </symbol>
  
</svg>